<?xml version="1.0" ?><!DOCTYPE svg  PUBLIC '-//W3C//DTD SVG 1.1//EN'  'http://www.w3.org/Graphics/SVG/1.1/DTD/svg11.dtd'><svg height="512px" style="shape-rendering:geometricPrecision; text-rendering:geometricPrecision; image-rendering:optimizeQuality; fill-rule:evenodd; clip-rule:evenodd" version="1.1" viewBox="0 0 512 512" width="512px" xml:space="preserve" xmlns="http://www.w3.org/2000/svg" xmlns:xlink="http://www.w3.org/1999/xlink" xmlns:xodm="http://www.corel.com/coreldraw/odm/2003"><defs><style type="text/css">
   <![CDATA[
    .fil1 {fill:white;fill-rule:nonzero}
    .fil0 {fill:url(#id0)}
   ]]>
  </style><linearGradient gradientUnits="userSpaceOnUse" id="id0" x1="67.83" x2="474.19" y1="82.42" y2="389.98"><stop offset="0" style="stop-opacity:1; stop-color:#D0272C"/><stop offset="1" style="stop-opacity:1; stop-color:#E62027"/></linearGradient></defs><g id="Layer_x0020_1"><g id="_1639277427040"><path class="fil0" d="M256 0c141.39,0 256,114.61 256,256 0,141.39 -114.61,256 -256,256 -141.39,0 -256,-114.61 -256,-256 0,-141.39 114.61,-256 256,-256z"/><path class="fil1" d="M235.16 304.61c-7.91,41.46 -17.57,81.22 -46.18,101.98 -8.83,-62.67 12.97,-109.74 23.09,-159.7 -17.26,-29.06 2.08,-87.53 38.48,-73.12 44.8,17.72 -38.79,108.02 17.32,119.3 58.59,11.77 82.51,-101.66 46.18,-138.54 -52.49,-53.26 -152.8,-1.22 -140.46,75.04 3,18.64 22.26,24.3 7.69,50.03 -33.59,-7.45 -43.62,-33.95 -42.33,-69.27 2.08,-57.83 51.95,-98.31 101.98,-103.91 63.27,-7.08 122.65,23.23 130.85,82.74 9.23,67.17 -28.56,139.92 -96.21,134.69 -18.34,-1.42 -26.04,-10.51 -40.41,-19.24z"/></g></g></svg>